<svg width="56" height="56" viewBox="0 0 56 56" fill="none" xmlns="http://www.w3.org/2000/svg">
<path d="M11.12 38.71C11.31 38.71 11.47 38.55 11.47 38.36V37.42C11.47 37.23 11.31 37.07 11.12 37.07C10.93 37.07 10.77 37.23 10.77 37.42V38.36C10.77 38.55 10.93 38.71 11.12 38.71Z" fill="#444444"/>
<path d="M11.12 38.83C10.86 38.83 10.64 38.62 10.64 38.35V37.41C10.64 37.15 10.85 36.93 11.12 36.93C11.39 36.93 11.6 37.14 11.6 37.41V38.35C11.6 38.61 11.39 38.83 11.12 38.83ZM11.12 37.18C10.99 37.18 10.89 37.28 10.89 37.41V38.35C10.89 38.48 10.99 38.58 11.12 38.58C11.25 38.58 11.35 38.48 11.35 38.35V37.41C11.35 37.28 11.25 37.18 11.12 37.18Z" fill="#444444"/>
<path d="M11.12 39.4C10.93 39.4 10.77 39.56 10.77 39.75V40.69C10.77 40.88 10.93 41.04 11.12 41.04C11.31 41.04 11.47 40.88 11.47 40.69V39.75C11.47 39.56 11.31 39.4 11.12 39.4Z" fill="#444444"/>
<path d="M11.12 41.18C10.86 41.18 10.64 40.97 10.64 40.7V39.76C10.64 39.5 10.85 39.28 11.12 39.28C11.39 39.28 11.6 39.49 11.6 39.76V40.7C11.6 40.96 11.39 41.18 11.12 41.18ZM11.12 39.53C10.99 39.53 10.89 39.63 10.89 39.76V40.7C10.89 40.83 10.99 40.93 11.12 40.93C11.25 40.93 11.35 40.83 11.35 40.7V39.76C11.35 39.63 11.25 39.53 11.12 39.53Z" fill="#444444"/>
<path d="M12.77 38.7H11.83C11.64 38.7 11.48 38.86 11.48 39.05C11.48 39.24 11.64 39.4 11.83 39.4H12.77C12.96 39.4 13.12 39.24 13.12 39.05C13.12 38.86 12.96 38.7 12.77 38.7Z" fill="#444444"/>
<path d="M12.77 39.53H11.83C11.57 39.53 11.35 39.32 11.35 39.05C11.35 38.78 11.56 38.57 11.83 38.57H12.77C13.03 38.57 13.25 38.78 13.25 39.05C13.25 39.32 13.04 39.53 12.77 39.53ZM11.83 38.82C11.7 38.82 11.6 38.92 11.6 39.05C11.6 39.18 11.7 39.28 11.83 39.28H12.77C12.9 39.28 13 39.18 13 39.05C13 38.92 12.9 38.82 12.77 38.82H11.83Z" fill="#444444"/>
<path d="M10.42 38.7H9.48C9.29 38.7 9.13 38.86 9.13 39.05C9.13 39.24 9.29 39.4 9.48 39.4H10.42C10.61 39.4 10.77 39.24 10.77 39.05C10.77 38.86 10.61 38.7 10.42 38.7Z" fill="#444444"/>
<path d="M10.42 39.53H9.48C9.22 39.53 9 39.32 9 39.05C9 38.78 9.21 38.57 9.48 38.57H10.42C10.68 38.57 10.9 38.78 10.9 39.05C10.9 39.32 10.69 39.53 10.42 39.53ZM9.48 38.82C9.35 38.82 9.25 38.92 9.25 39.05C9.25 39.18 9.35 39.28 9.48 39.28H10.42C10.55 39.28 10.65 39.18 10.65 39.05C10.65 38.92 10.55 38.82 10.42 38.82H9.48Z" fill="#444444"/>
<path d="M46.08 14.81C46.27 14.81 46.43 14.65 46.43 14.46V13.52C46.43 13.33 46.27 13.17 46.08 13.17C45.89 13.17 45.73 13.33 45.73 13.52V14.46C45.73 14.65 45.89 14.81 46.08 14.81Z" fill="#444444"/>
<path d="M46.08 14.93C45.82 14.93 45.6 14.72 45.6 14.45V13.51C45.6 13.25 45.81 13.03 46.08 13.03C46.35 13.03 46.56 13.24 46.56 13.51V14.45C46.56 14.71 46.35 14.93 46.08 14.93ZM46.08 13.28C45.95 13.28 45.85 13.38 45.85 13.51V14.45C45.85 14.58 45.95 14.68 46.08 14.68C46.21 14.68 46.31 14.58 46.31 14.45V13.51C46.31 13.38 46.21 13.28 46.08 13.28Z" fill="#444444"/>
<path d="M46.08 15.5C45.89 15.5 45.73 15.66 45.73 15.85V16.79C45.73 16.98 45.89 17.14 46.08 17.14C46.27 17.14 46.43 16.98 46.43 16.79V15.85C46.43 15.66 46.27 15.5 46.08 15.5Z" fill="#444444"/>
<path d="M46.08 17.27C45.82 17.27 45.6 17.06 45.6 16.79V15.85C45.6 15.59 45.81 15.37 46.08 15.37C46.35 15.37 46.56 15.58 46.56 15.85V16.79C46.56 17.05 46.35 17.27 46.08 17.27ZM46.08 15.62C45.95 15.62 45.85 15.72 45.85 15.85V16.79C45.85 16.92 45.95 17.02 46.08 17.02C46.21 17.02 46.31 16.92 46.31 16.79V15.85C46.31 15.72 46.21 15.62 46.08 15.62Z" fill="#444444"/>
<path d="M47.72 14.8H46.78C46.59 14.8 46.43 14.96 46.43 15.15C46.43 15.34 46.59 15.5 46.78 15.5H47.72C47.91 15.5 48.07 15.34 48.07 15.15C48.07 14.96 47.91 14.8 47.72 14.8Z" fill="#444444"/>
<path d="M47.72 15.63H46.78C46.52 15.63 46.3 15.42 46.3 15.15C46.3 14.88 46.51 14.67 46.78 14.67H47.72C47.98 14.67 48.2 14.88 48.2 15.15C48.2 15.42 47.99 15.63 47.72 15.63ZM46.78 14.92C46.65 14.92 46.55 15.02 46.55 15.15C46.55 15.28 46.65 15.38 46.78 15.38H47.72C47.85 15.38 47.95 15.28 47.95 15.15C47.95 15.02 47.85 14.92 47.72 14.92H46.78Z" fill="#444444"/>
<path d="M45.38 14.8H44.44C44.25 14.8 44.09 14.96 44.09 15.15C44.09 15.34 44.25 15.5 44.44 15.5H45.38C45.57 15.5 45.73 15.34 45.73 15.15C45.73 14.96 45.57 14.8 45.38 14.8Z" fill="#444444"/>
<path d="M45.38 15.63H44.44C44.18 15.63 43.96 15.42 43.96 15.15C43.96 14.88 44.17 14.67 44.44 14.67H45.38C45.64 14.67 45.86 14.88 45.86 15.15C45.86 15.42 45.65 15.63 45.38 15.63ZM44.44 14.92C44.31 14.92 44.21 15.02 44.21 15.15C44.21 15.28 44.31 15.38 44.44 15.38H45.38C45.51 15.38 45.61 15.28 45.61 15.15C45.61 15.02 45.51 14.92 45.38 14.92H44.44Z" fill="#444444"/>
<path d="M30.51 42C30.7 42 30.86 41.84 30.86 41.65C30.86 41.46 30.7 41.3 30.51 41.3H18.78L18.65 40.96V8.87H41.34V26.41C41.34 26.6 41.5 26.76 41.69 26.76C41.88 26.76 42.04 26.6 42.04 26.41V8.51C42.04 8.32 41.88 8.16 41.69 8.16H31.49L30.55 5.63C30.48 5.45 30.28 5.35 30.1 5.42L22.67 8.16H18.3C18.11 8.16 17.95 8.32 17.95 8.51V9.9L8.15 13.51C8.06 13.54 7.99 13.61 7.95 13.69C7.91 13.77 7.91 13.87 7.94 13.96L17.94 41.07V41.64C17.94 41.83 18.09 41.98 18.28 41.99L19.41 45.04C19.46 45.18 19.6 45.27 19.74 45.27C19.78 45.27 19.82 45.27 19.86 45.25L28.7 41.99H30.5L30.51 42ZM30.02 6.21L30.74 8.17H24.72L30.02 6.21ZM17.96 10.66V39.04L8.73 14.05L17.95 10.65L17.96 10.66ZM19.97 44.48L19.06 42H26.69L19.98 44.48H19.97Z" fill="#444444"/>
<path d="M19.75 45.4C19.55 45.4 19.37 45.28 19.3 45.09L18.2 42.11C17.99 42.06 17.83 41.87 17.83 41.65V41.1L7.83 14.01C7.79 13.89 7.79 13.76 7.84 13.64C7.89 13.52 7.99 13.43 8.11 13.39L17.82 9.81V8.51C17.82 8.25 18.03 8.03 18.3 8.03H22.65L30.06 5.3C30.18 5.26 30.31 5.26 30.42 5.31C30.54 5.36 30.62 5.46 30.67 5.58L31.58 8.03H41.7C41.96 8.03 42.18 8.24 42.18 8.51V26.41C42.18 26.67 41.97 26.89 41.7 26.89C41.43 26.89 41.22 26.68 41.22 26.41V8.99H18.78V40.92L18.87 41.16H30.51C30.77 41.16 30.99 41.37 30.99 41.64C30.99 41.91 30.78 42.12 30.51 42.12H28.74L19.93 45.37C19.87 45.39 19.82 45.4 19.76 45.4H19.75ZM18.3 8.28C18.17 8.28 18.07 8.38 18.07 8.51V9.98L17.99 10.01L8.19 13.62C8.13 13.64 8.09 13.68 8.06 13.74C8.03 13.8 8.03 13.86 8.06 13.92L18.07 41.07V41.64C18.07 41.76 18.17 41.86 18.29 41.86H18.37L19.53 45C19.57 45.11 19.7 45.18 19.83 45.13L28.71 41.86H30.55C30.66 41.84 30.74 41.75 30.74 41.64C30.74 41.51 30.64 41.41 30.51 41.41H18.7L18.53 40.94V8.74H41.47V26.41C41.47 26.54 41.57 26.64 41.7 26.64C41.83 26.64 41.93 26.54 41.93 26.41V8.51C41.93 8.38 41.83 8.28 41.7 8.28H31.41L30.44 5.67C30.42 5.61 30.38 5.57 30.32 5.54C30.26 5.51 30.2 5.51 30.15 5.54L22.68 8.29H18.31L18.3 8.28ZM19.88 44.63L18.86 41.87H27.37L19.88 44.63ZM19.22 42.12L20.03 44.31L25.97 42.12H19.22ZM18.07 39.73L8.57 13.98L18.08 10.48V39.74L18.07 39.73ZM8.89 14.13L17.82 38.34V10.84L8.89 14.13ZM30.92 8.29H24.02L30.09 6.05L30.92 8.29ZM25.42 8.04H30.57L29.95 6.37L25.42 8.04Z" fill="#444444"/>
<path d="M40.54 27.7C38.79 26.92 36.84 26.86 35.05 27.54C33.26 28.22 31.84 29.56 31.06 31.31C30.28 33.06 30.22 35.01 30.9 36.8C31.54 38.48 32.76 39.83 34.36 40.64L33.86 41.76L32.66 41.22C32.48 41.14 32.27 41.22 32.19 41.4L29.35 47.75C28.89 48.77 29.35 49.97 30.37 50.43C30.64 50.55 30.92 50.61 31.2 50.61C31.97 50.61 32.71 50.17 33.05 49.41L35.89 43.06C35.93 42.98 35.93 42.88 35.89 42.79C35.85 42.7 35.79 42.63 35.7 42.59L34.5 42.05L35 40.93C35.84 41.26 36.72 41.43 37.6 41.43C38.48 41.43 39.33 41.27 40.16 40.96C41.95 40.28 43.37 38.94 44.15 37.19C44.93 35.44 44.99 33.49 44.31 31.7C43.63 29.91 42.29 28.49 40.54 27.71V27.7ZM32.39 49.11C32.25 49.43 31.98 49.68 31.66 49.8C31.34 49.92 30.97 49.92 30.65 49.77C30.33 49.62 30.08 49.36 29.96 49.04C29.84 48.72 29.84 48.35 29.99 48.03L32.69 42L35.1 43.08L32.4 49.11H32.39ZM43.51 36.9C42.8 38.48 41.52 39.69 39.91 40.3C38.29 40.92 36.53 40.87 34.96 40.16C33.39 39.45 32.17 38.17 31.56 36.56C30.94 34.94 30.99 33.18 31.7 31.61C32.41 30.04 33.69 28.82 35.3 28.21C36.05 27.92 36.83 27.78 37.61 27.78C38.51 27.78 39.41 27.97 40.25 28.35C41.83 29.06 43.04 30.34 43.65 31.95C44.27 33.57 44.22 35.33 43.51 36.9Z" fill="#444444"/>
<path d="M31.19 50.73C30.89 50.73 30.59 50.67 30.31 50.54C29.79 50.31 29.38 49.88 29.18 49.34C28.98 48.8 28.99 48.22 29.23 47.69L32.07 41.34C32.12 41.22 32.22 41.13 32.34 41.09C32.46 41.05 32.59 41.05 32.71 41.1L33.8 41.59L34.2 40.7C32.63 39.87 31.42 38.51 30.79 36.85C30.09 35.03 30.15 33.04 30.95 31.26C31.75 29.48 33.19 28.11 35.01 27.42C36.83 26.72 38.82 26.78 40.6 27.58C42.38 28.38 43.74 29.82 44.44 31.64C45.14 33.46 45.08 35.45 44.28 37.23C43.48 39.02 42.04 40.38 40.22 41.07C38.57 41.69 36.79 41.72 35.08 41.08L34.68 41.97L35.77 42.46C35.89 42.51 35.97 42.6 36.02 42.73C36.07 42.85 36.06 42.98 36.02 43.1L33.18 49.45C32.84 50.22 32.06 50.72 31.22 50.72L31.19 50.73ZM32.51 41.32C32.51 41.32 32.46 41.32 32.43 41.33C32.37 41.35 32.33 41.39 32.3 41.45L29.46 47.8C29.25 48.26 29.24 48.78 29.42 49.25C29.6 49.73 29.96 50.1 30.42 50.31C30.67 50.42 30.93 50.48 31.2 50.48C31.95 50.48 32.63 50.04 32.94 49.36L35.78 43.01C35.81 42.95 35.81 42.89 35.78 42.84C35.76 42.78 35.71 42.73 35.66 42.71L34.34 42.12L34.94 40.78L35.05 40.82C36.74 41.48 38.49 41.47 40.12 40.85C41.88 40.18 43.27 38.86 44.04 37.14C44.81 35.42 44.86 33.5 44.19 31.74C43.52 29.98 42.2 28.59 40.48 27.82C38.76 27.05 36.84 27 35.08 27.67C33.32 28.34 31.93 29.66 31.16 31.38C30.39 33.1 30.34 35.02 31.01 36.78C31.63 38.41 32.84 39.75 34.41 40.55L34.52 40.6L33.92 41.94L32.6 41.35C32.6 41.35 32.54 41.33 32.51 41.33V41.32ZM31.19 50.02C30.99 50.02 30.79 49.98 30.6 49.89C30.25 49.73 29.98 49.44 29.84 49.09C29.7 48.73 29.71 48.33 29.87 47.98L32.62 41.84L35.26 43.02L35.21 43.13L32.51 49.16C32.35 49.51 32.07 49.78 31.71 49.92C31.54 49.98 31.37 50.01 31.19 50.01V50.02ZM32.75 42.17L30.1 48.08C29.97 48.37 29.96 48.69 30.07 49C30.18 49.3 30.4 49.53 30.7 49.66C30.99 49.79 31.31 49.8 31.62 49.68C31.92 49.57 32.15 49.35 32.28 49.05L34.93 43.14L32.75 42.16V42.17ZM37.6 40.86C36.68 40.86 35.77 40.67 34.9 40.28C33.29 39.56 32.06 38.26 31.43 36.61C30.8 34.97 30.85 33.17 31.57 31.56C32.29 29.95 33.59 28.72 35.24 28.09C36.87 27.47 38.68 27.52 40.29 28.23C41.9 28.95 43.13 30.25 43.76 31.9C44.39 33.55 44.34 35.34 43.62 36.95C42.9 38.56 41.6 39.79 39.95 40.42C39.19 40.71 38.39 40.86 37.6 40.86ZM37.6 27.9C36.83 27.9 36.06 28.04 35.33 28.32C33.74 28.93 32.49 30.11 31.8 31.66C31.11 33.21 31.06 34.94 31.66 36.52C32.27 38.11 33.45 39.36 35 40.05C36.55 40.74 38.28 40.79 39.86 40.19C41.45 39.58 42.7 38.4 43.39 36.85C44.09 35.3 44.13 33.58 43.53 31.99C42.92 30.4 41.74 29.15 40.19 28.46C39.36 28.09 38.49 27.9 37.6 27.9Z" fill="#444444"/>
<path d="M39.8 29.36C38.49 28.77 37.04 28.73 35.7 29.24C34.36 29.75 33.3 30.75 32.72 32.06C31.51 34.76 32.72 37.93 35.42 39.14C36.13 39.46 36.87 39.61 37.6 39.61C39.65 39.61 41.61 38.43 42.5 36.44C43.09 35.13 43.13 33.68 42.62 32.34C42.11 31 41.11 29.94 39.81 29.36H39.8ZM41.86 36.15C40.81 38.49 38.05 39.54 35.71 38.49C33.37 37.44 32.32 34.68 33.37 32.34C34.14 30.61 35.85 29.59 37.62 29.59C38.26 29.59 38.9 29.72 39.52 30C41.86 31.05 42.91 33.81 41.86 36.15Z" fill="#444444"/>
<path d="M37.6 39.73C36.83 39.73 36.08 39.57 35.37 39.25C32.61 38.01 31.37 34.76 32.61 32C33.21 30.66 34.29 29.64 35.66 29.12C37.03 28.6 38.52 28.64 39.86 29.24C41.2 29.84 42.22 30.92 42.74 32.29C43.26 33.66 43.22 35.15 42.62 36.49C41.74 38.46 39.77 39.73 37.61 39.73H37.6ZM37.61 29.01C36.98 29.01 36.35 29.12 35.74 29.36C34.43 29.86 33.4 30.83 32.83 32.11C31.65 34.74 32.83 37.85 35.47 39.03C36.15 39.33 36.87 39.49 37.6 39.49C39.67 39.49 41.54 38.28 42.38 36.4C42.95 35.12 42.99 33.7 42.49 32.4C41.99 31.09 41.02 30.06 39.74 29.49C39.06 29.18 38.33 29.03 37.6 29.03L37.61 29.01ZM37.6 39.02C36.95 39.02 36.29 38.89 35.66 38.6C34.5 38.08 33.61 37.13 33.15 35.94C32.69 34.75 32.73 33.45 33.25 32.29C34.02 30.57 35.73 29.47 37.62 29.47C38.29 29.47 38.95 29.61 39.57 29.89C40.73 30.41 41.62 31.36 42.08 32.55C42.54 33.74 42.5 35.04 41.98 36.2C41.19 37.97 39.44 39.02 37.61 39.02H37.6ZM37.61 29.72C35.83 29.72 34.2 30.77 33.47 32.4C32.45 34.68 33.47 37.36 35.75 38.38C38.03 39.4 40.71 38.38 41.73 36.1C42.22 35 42.26 33.77 41.83 32.64C41.4 31.51 40.55 30.61 39.45 30.12C38.86 29.86 38.24 29.72 37.6 29.72H37.61Z" fill="#444444"/>
</svg>
